#define all_the_numbers_width 121
#define all_the_numbers_height 22
static unsigned char all_the_numbers_bits[] = {
   0x00, 0x00, 0x00, 0x00, 0x00, 0x00, 0x00, 0x00, 0x00, 0x00, 0x00, 0x00,
   0x00, 0x00, 0x00, 0x00, 0x00, 0x00, 0x00, 0x00, 0x00, 0x00, 0x00, 0x00,
   0x00, 0x00, 0x00, 0x00, 0x00, 0x00, 0x00, 0x00, 0x00, 0x00, 0x00, 0x00,
   0x00, 0x00, 0x00, 0x00, 0x00, 0x00, 0x00, 0x00, 0x00, 0x00, 0x00, 0x00,
   0x00, 0x00, 0x00, 0x00, 0x00, 0x00, 0x00, 0x00, 0x00, 0x00, 0x00, 0x00,
   0x00, 0x00, 0x00, 0x00, 0x00, 0x00, 0x00, 0x00, 0x00, 0x00, 0x00, 0x00,
   0x00, 0x00, 0x00, 0x00, 0x00, 0x00, 0x00, 0x00, 0x00, 0x38, 0xc0, 0x80,
   0x07, 0x0e, 0x60, 0xf8, 0x01, 0x87, 0x3f, 0x38, 0xe0, 0x00, 0x00, 0x00,
   0x00, 0x7c, 0xe0, 0xc0, 0x8f, 0x3f, 0x70, 0xf8, 0x81, 0x87, 0x3f, 0xfe,
   0xf0, 0x01, 0x00, 0x00, 0x00, 0xee, 0xf0, 0x60, 0x8c, 0x31, 0x70, 0x18,
   0xc0, 0x00, 0x38, 0xc6, 0xb8, 0x03, 0x00, 0x00, 0x00, 0xc6, 0xd8, 0x60,
   0x0c, 0x30, 0x78, 0x18, 0xe0, 0x00, 0x18, 0xc6, 0x18, 0x63, 0x00, 0x00,
   0x00, 0xc6, 0xc0, 0x00, 0x0c, 0x30, 0x68, 0xf8, 0xe0, 0x07, 0x18, 0xc6,
   0x18, 0x63, 0x00, 0x00, 0x00, 0xc6, 0xc0, 0x00, 0x06, 0x1e, 0x6c, 0xf8,
   0xe0, 0x07, 0x1c, 0x7c, 0x18, 0x03, 0x00, 0x00, 0x00, 0xc6, 0xc0, 0x00,
   0x07, 0x1e, 0x66, 0x80, 0x61, 0x0c, 0x0c, 0x7c, 0xf0, 0x03, 0x00, 0x00,
   0x00, 0xc6, 0xc0, 0x00, 0x03, 0x30, 0xfe, 0x80, 0x61, 0x0c, 0x0c, 0xc6,
   0xf0, 0x03, 0x00, 0x00, 0x00, 0xc6, 0xc0, 0x80, 0x01, 0x30, 0xfe, 0x80,
   0x61, 0x0c, 0x0e, 0xc6, 0x00, 0x03, 0x00, 0x00, 0x00, 0xee, 0xc0, 0xc0,
   0x80, 0x31, 0x60, 0x98, 0x61, 0x0e, 0x06, 0xc6, 0x80, 0x01, 0x00, 0x00,
   0x00, 0x7c, 0xc0, 0xe0, 0x8f, 0x1f, 0x60, 0xf8, 0xc0, 0x07, 0x06, 0xfe,
   0xf0, 0x60, 0x00, 0x00, 0x00, 0x38, 0xc0, 0xe0, 0x0f, 0x0e, 0x60, 0x70,
   0x80, 0x03, 0x07, 0x78, 0x70, 0x60, 0x00, 0x00, 0x00, 0x00, 0x00, 0x00,
   0x00, 0x00, 0x00, 0x00, 0x00, 0x00, 0x00, 0x00, 0x00, 0x00, 0x00, 0x00,
   0x00, 0x00, 0x00, 0x00, 0x00, 0x00, 0x00, 0x00, 0x00, 0x00, 0x00, 0x00,
   0x00, 0x00, 0x00, 0x00, 0x00, 0x00, 0x00, 0x00, 0x00, 0x00, 0x00, 0x00,
   0x00, 0x00, 0x00, 0x00, 0x00, 0x00, 0x00, 0x00, 0x00, 0x00, 0x00, 0x00,
   0x00, 0x00, 0x00, 0x00, 0x00, 0x00, 0x00, 0x00, 0x00, 0x00, 0x00, 0x00,
   0x00, 0x00, 0x00, 0x00, 0x00, 0x00, 0x00, 0x00, 0x00, 0x00, 0x00, 0x00,
   0x00, 0x00, 0x00, 0x00 };
