#define orig_3_width 8
#define orig_3_height 16
static unsigned char orig_3_bits[] = {
   0x00, 0x00, 0x1c, 0x7f, 0x63, 0x60, 0x60, 0x3c, 0x3c, 0x60, 0x60, 0x63,
   0x3f, 0x1c, 0x00, 0x00 };
