#define orig_6_width 8
#define orig_6_height 16
static unsigned char orig_6_bits[] = {
   0x00, 0x00, 0x38, 0x3c, 0x06, 0x07, 0x3f, 0x3f, 0x63, 0x63, 0x63, 0x73,
   0x3e, 0x1c, 0x00, 0x00 };
