#define orig_2_width 8
#define orig_2_height 16
static unsigned char orig_2_bits[] = {
   0x00, 0x00, 0x3c, 0x7e, 0x63, 0x63, 0x60, 0x30, 0x38, 0x18, 0x0c, 0x06,
   0x7f, 0x7f, 0x00, 0x00 };
