#define orig_8_width 8
#define orig_8_height 16
static unsigned char orig_8_bits[] = {
   0x00, 0x00, 0x1c, 0x7f, 0x63, 0x63, 0x63, 0x3e, 0x3e, 0x63, 0x63, 0x63,
   0x7f, 0x3c, 0x00, 0x00 };
