#define orig_5_width 8
#define orig_5_height 16
static unsigned char orig_5_bits[] = {
   0x00, 0x00, 0x7e, 0x7e, 0x06, 0x06, 0x3e, 0x3e, 0x60, 0x60, 0x60, 0x66,
   0x3e, 0x1c, 0x00, 0x00 };
