#define orig_4_width 8
#define orig_4_height 16
static unsigned char orig_4_bits[] = {
   0x00, 0x00, 0x30, 0x38, 0x38, 0x3c, 0x34, 0x36, 0x33, 0x7f, 0x7f, 0x30,
   0x30, 0x30, 0x00, 0x00 };
