#define orig_7_width 8
#define orig_7_height 16
static unsigned char orig_7_bits[] = {
   0x00, 0x00, 0x7f, 0x7f, 0x70, 0x30, 0x30, 0x38, 0x18, 0x18, 0x1c, 0x0c,
   0x0c, 0x0e, 0x00, 0x00 };
