#define orig_0_width 8
#define orig_0_height 16
static unsigned char orig_0_bits[] = {
   0x00, 0x00, 0x1c, 0x3e, 0x77, 0x63, 0x63, 0x63, 0x63, 0x63, 0x63, 0x77,
   0x3e, 0x1c, 0x00, 0x00 };
