#define orig___width 8
#define orig___height 16
static unsigned char orig___bits[] = {
   0x00, 0x00, 0x00, 0x00, 0x00, 0x18, 0x18, 0x00, 0x00, 0x00, 0x00, 0x00,
   0x18, 0x18, 0x00, 0x00 };
