#define orig_1_width 8
#define orig_1_height 16
static unsigned char orig_1_bits[] = {
   0x00, 0x00, 0x30, 0x38, 0x3c, 0x36, 0x30, 0x30, 0x30, 0x30, 0x30, 0x30,
   0x30, 0x30, 0x00, 0x00 };
