#define orig_9_width 8
#define orig_9_height 16
static unsigned char orig_9_bits[] = {
   0x00, 0x00, 0x1c, 0x3e, 0x77, 0x63, 0x63, 0x63, 0x7e, 0x7e, 0x60, 0x30,
   0x1e, 0x0e, 0x00, 0x00 };
