#define rotflip_3_width 16
#define rotflip_3_height 8
static unsigned char rotflip_3_bits[] = {
   0x18, 0x18, 0x18, 0x18, 0x8c, 0x31, 0x8c, 0x31, 0x8c, 0x31, 0xf8, 0x1f,
   0x78, 0x0e, 0x00, 0x00 };
