#define rotflip_5_width 16
#define rotflip_5_height 8
static unsigned char rotflip_5_bits[] = {
   0x00, 0x00, 0xfc, 0x18, 0xfc, 0x38, 0xcc, 0x30, 0xcc, 0x30, 0xcc, 0x1f,
   0x0c, 0x0f, 0x00, 0x00 };
