#define rotflip_6_width 16
#define rotflip_6_height 8
static unsigned char rotflip_6_bits[] = {
   0xe0, 0x0f, 0xf0, 0x1f, 0xf8, 0x30, 0xcc, 0x30, 0xcc, 0x38, 0xcc, 0x1f,
   0x00, 0x0f, 0x00, 0x00 };
