#define rotflip_8_width 16
#define rotflip_8_height 8
static unsigned char rotflip_8_bits[] = {
   0x78, 0x1e, 0xf8, 0x1f, 0x8c, 0x31, 0x8c, 0x31, 0x8c, 0x31, 0xf8, 0x3f,
   0x78, 0x1e, 0x00, 0x00 };
