#define rotflip___width 16
#define rotflip___height 8
static unsigned char rotflip___bits[] = {
   0x00, 0x00, 0x00, 0x00, 0x00, 0x00, 0x60, 0x30, 0x60, 0x30, 0x00, 0x00,
   0x00, 0x00, 0x00, 0x00 };
