#define rotflip_7_width 16
#define rotflip_7_height 8
static unsigned char rotflip_7_bits[] = {
   0x0c, 0x00, 0x0c, 0x20, 0x0c, 0x3c, 0x8c, 0x3f, 0xfc, 0x07, 0xfc, 0x00,
   0x1c, 0x00, 0x00, 0x00 };
