#define rotflip_9_width 16
#define rotflip_9_height 8
static unsigned char rotflip_9_bits[] = {
   0xf0, 0x00, 0xf8, 0x33, 0x1c, 0x33, 0x0c, 0x33, 0x1c, 0x1b, 0xf8, 0x0f,
   0xf0, 0x07, 0x00, 0x00 };
