#define rotflip_1_width 16
#define rotflip_1_height 8
static unsigned char rotflip_1_bits[] = {
   0x00, 0x00, 0x20, 0x00, 0x30, 0x00, 0x18, 0x00, 0xfc, 0x3f, 0xfc, 0x3f,
   0x00, 0x00, 0x00, 0x00 };
