#define rotflip_0_width 16
#define rotflip_0_height 8
static unsigned char rotflip_0_bits[] = {
   0xf0, 0x0f, 0xf8, 0x1f, 0x1c, 0x38, 0x0c, 0x30, 0x1c, 0x38, 0xf8, 0x1f,
   0xf0, 0x0f, 0x00, 0x00 };
