#define rotflip_4_width 16
#define rotflip_4_height 8
static unsigned char rotflip_4_bits[] = {
   0x00, 0x07, 0x80, 0x07, 0xe0, 0x06, 0x38, 0x06, 0xfc, 0x3f, 0xfc, 0x3f,
   0x00, 0x06, 0x00, 0x00 };
