#define rotflip_2_width 16
#define rotflip_2_height 8
static unsigned char rotflip_2_bits[] = {
   0x30, 0x30, 0x38, 0x38, 0x0c, 0x3c, 0x0c, 0x37, 0x8c, 0x33, 0xfc, 0x31,
   0x78, 0x30, 0x00, 0x00 };
