#define split_1_width 8
#define split_1_height 16
static unsigned char split_1_bits[] = {
   0x00, 0x20, 0x30, 0x18, 0xfc, 0xfc, 0x00, 0x00, 0x00, 0x00, 0x00, 0x00,
   0x3f, 0x3f, 0x00, 0x00 };
