#define split_7_width 8
#define split_7_height 16
static unsigned char split_7_bits[] = {
   0x0c, 0x0c, 0x0c, 0x8c, 0xfc, 0xfc, 0x1c, 0x00, 0x00, 0x20, 0x3c, 0x3f,
   0x07, 0x00, 0x00, 0x00 };
