#define split_0_width 8
#define split_0_height 16
static unsigned char split_0_bits[] = {
   0xf0, 0xf8, 0x1c, 0x0c, 0x1c, 0xf8, 0xf0, 0x00, 0x0f, 0x1f, 0x38, 0x30,
   0x38, 0x1f, 0x0f, 0x00 };
