#define split_3_width 8
#define split_3_height 16
static unsigned char split_3_bits[] = {
   0x18, 0x18, 0x8c, 0x8c, 0x8c, 0xf8, 0x78, 0x00, 0x18, 0x18, 0x31, 0x31,
   0x31, 0x1f, 0x0e, 0x00 };
