#define split_5_width 8
#define split_5_height 16
static unsigned char split_5_bits[] = {
   0x00, 0xfc, 0xfc, 0xcc, 0xcc, 0xcc, 0x0c, 0x00, 0x00, 0x18, 0x38, 0x30,
   0x30, 0x1f, 0x0f, 0x00 };
