#define split___width 8
#define split___height 16
static unsigned char split___bits[] = {
   0x00, 0x00, 0x00, 0x60, 0x60, 0x00, 0x00, 0x00, 0x00, 0x00, 0x00, 0x30,
   0x30, 0x00, 0x00, 0x00 };
