#define split_9_width 8
#define split_9_height 16
static unsigned char split_9_bits[] = {
   0xf0, 0xf8, 0x1c, 0x0c, 0x1c, 0xf8, 0xf0, 0x00, 0x00, 0x33, 0x33, 0x33,
   0x1b, 0x0f, 0x07, 0x00 };
