#define split_2_width 8
#define split_2_height 16
static unsigned char split_2_bits[] = {
   0x30, 0x38, 0x0c, 0x0c, 0x8c, 0xfc, 0x78, 0x00, 0x30, 0x38, 0x3c, 0x37,
   0x33, 0x31, 0x30, 0x00 };
