#define split_8_width 8
#define split_8_height 16
static unsigned char split_8_bits[] = {
   0x78, 0xf8, 0x8c, 0x8c, 0x8c, 0xf8, 0x78, 0x00, 0x1e, 0x1f, 0x31, 0x31,
   0x31, 0x3f, 0x1e, 0x00 };
