#define split_4_width 8
#define split_4_height 16
static unsigned char split_4_bits[] = {
   0x00, 0x80, 0xe0, 0x38, 0xfc, 0xfc, 0x00, 0x00, 0x07, 0x07, 0x06, 0x06,
   0x3f, 0x3f, 0x06, 0x00 };
