#define split_6_width 8
#define split_6_height 16
static unsigned char split_6_bits[] = {
   0xe0, 0xf0, 0xf8, 0xcc, 0xcc, 0xcc, 0x00, 0x00, 0x0f, 0x1f, 0x30, 0x30,
   0x38, 0x1f, 0x0f, 0x00 };
