#define all_the_numbers_width 318
#define all_the_numbers_height 68
static unsigned char all_the_numbers_bits[] = {
   0x00, 0x00, 0x00, 0x00, 0x00, 0x00, 0x00, 0x00, 0x00, 0x00, 0x00, 0x00,
   0x00, 0x00, 0x00, 0x00, 0x00, 0x00, 0x00, 0x00, 0x00, 0x00, 0x00, 0x00,
   0x00, 0x00, 0x00, 0x00, 0x00, 0x00, 0x00, 0x00, 0x00, 0x00, 0x00, 0x00,
   0x00, 0x00, 0x00, 0x00, 0x00, 0x00, 0x00, 0x00, 0x00, 0x00, 0x00, 0x00,
   0x00, 0x00, 0x00, 0x00, 0x00, 0x00, 0x00, 0x00, 0x00, 0x00, 0x00, 0x00,
   0x00, 0x00, 0x00, 0x00, 0x00, 0x00, 0x00, 0x00, 0x00, 0x00, 0x00, 0x00,
   0x00, 0x00, 0x00, 0x00, 0x00, 0x00, 0x00, 0x00, 0x00, 0x00, 0x00, 0x00,
   0x00, 0x00, 0x00, 0x00, 0x00, 0x00, 0x00, 0x00, 0x00, 0x00, 0x00, 0x00,
   0x00, 0x00, 0x00, 0x00, 0x00, 0x00, 0x00, 0x00, 0x00, 0x00, 0x00, 0x00,
   0x00, 0x00, 0x00, 0x00, 0x00, 0x00, 0x00, 0x00, 0x00, 0x00, 0x00, 0x00,
   0x00, 0x00, 0x00, 0x00, 0x00, 0x00, 0x00, 0x00, 0x00, 0x00, 0x00, 0x00,
   0x00, 0x00, 0x00, 0x00, 0x00, 0x00, 0x00, 0x00, 0x00, 0x00, 0x00, 0x00,
   0x00, 0x00, 0x00, 0x00, 0x00, 0x00, 0x00, 0x00, 0x00, 0x00, 0x00, 0x00,
   0x00, 0x00, 0x00, 0x00, 0x00, 0x00, 0x00, 0x00, 0x00, 0x00, 0x00, 0x00,
   0x00, 0x00, 0x00, 0x00, 0x00, 0x00, 0x00, 0x00, 0x00, 0x00, 0x00, 0x00,
   0x00, 0x00, 0x00, 0x00, 0x00, 0x00, 0x00, 0x00, 0x00, 0x00, 0x00, 0x00,
   0x00, 0x00, 0x00, 0x00, 0x00, 0x00, 0x00, 0x00, 0x00, 0x00, 0x00, 0x00,
   0x00, 0x00, 0x00, 0x00, 0x00, 0x00, 0x00, 0x00, 0x00, 0x00, 0x00, 0x00,
   0x00, 0x00, 0x00, 0x00, 0x00, 0x00, 0x00, 0x00, 0x00, 0x00, 0x00, 0x00,
   0x00, 0x00, 0x00, 0x00, 0x00, 0x00, 0x00, 0x00, 0x00, 0x00, 0x00, 0x00,
   0x00, 0x00, 0x00, 0x00, 0x00, 0x00, 0x00, 0x00, 0x00, 0x00, 0x00, 0x00,
   0x00, 0x00, 0x00, 0x00, 0x00, 0x00, 0x00, 0x00, 0x00, 0x00, 0x00, 0x00,
   0x00, 0x00, 0x00, 0x00, 0x00, 0x00, 0x00, 0x00, 0x00, 0x00, 0x00, 0x00,
   0x00, 0x00, 0x00, 0x00, 0x00, 0x00, 0x00, 0x00, 0x00, 0x00, 0x00, 0x00,
   0x00, 0x00, 0x00, 0x00, 0x00, 0x00, 0x00, 0x00, 0x00, 0x00, 0x00, 0x00,
   0x00, 0x00, 0x00, 0x00, 0x00, 0x00, 0x00, 0x00, 0x00, 0x00, 0x00, 0x00,
   0x00, 0x00, 0x00, 0x00, 0x00, 0x00, 0x00, 0x00, 0x00, 0x00, 0x00, 0x00,
   0x00, 0x00, 0x00, 0x00, 0x00, 0x00, 0x00, 0x00, 0x00, 0x00, 0x00, 0x00,
   0x00, 0x00, 0x00, 0x00, 0x00, 0x00, 0x00, 0x00, 0x00, 0x00, 0x00, 0x00,
   0x00, 0x00, 0x00, 0x00, 0x00, 0x00, 0x00, 0x00, 0x00, 0x00, 0x00, 0x00,
   0x00, 0x00, 0x00, 0x00, 0x00, 0x00, 0x00, 0x00, 0x00, 0x00, 0x00, 0x00,
   0x00, 0x00, 0x00, 0x00, 0x00, 0x00, 0x00, 0x00, 0x00, 0x00, 0x00, 0x00,
   0x00, 0x00, 0x00, 0x00, 0x00, 0x00, 0x00, 0x00, 0x00, 0x00, 0x00, 0x00,
   0x00, 0x00, 0x00, 0x00, 0x00, 0x00, 0x00, 0x00, 0x00, 0x00, 0x00, 0x00,
   0x00, 0x00, 0x00, 0x00, 0x00, 0x00, 0x00, 0x00, 0x00, 0x00, 0x00, 0x00,
   0x00, 0x00, 0x00, 0x00, 0x00, 0x00, 0x00, 0x00, 0x00, 0x00, 0x00, 0x00,
   0x00, 0x00, 0x00, 0x00, 0x00, 0x00, 0x00, 0x00, 0x00, 0x00, 0x00, 0x00,
   0x00, 0x00, 0x00, 0x00, 0x00, 0x00, 0x00, 0x00, 0x00, 0x00, 0x00, 0x00,
   0x00, 0x00, 0x00, 0x00, 0x00, 0x00, 0x00, 0x00, 0x00, 0x00, 0x00, 0x00,
   0x00, 0x00, 0x00, 0x00, 0x00, 0x00, 0x00, 0x00, 0x00, 0x00, 0x00, 0x00,
   0x00, 0x00, 0x00, 0x00, 0x00, 0x00, 0x00, 0x00, 0x00, 0x00, 0x00, 0x00,
   0x00, 0x00, 0x00, 0x00, 0x00, 0x00, 0x00, 0x00, 0x00, 0x00, 0x00, 0x00,
   0x00, 0x00, 0x00, 0x00, 0x00, 0x00, 0x00, 0x00, 0x00, 0x00, 0x00, 0x00,
   0x00, 0x00, 0x00, 0x00, 0x00, 0x00, 0x00, 0x10, 0x00, 0x00, 0x00, 0x00,
   0x00, 0x00, 0x00, 0x00, 0x00, 0x00, 0x00, 0x00, 0x00, 0x00, 0x00, 0x00,
   0x00, 0x00, 0x00, 0x00, 0x20, 0x00, 0x00, 0x00, 0x00, 0x00, 0x00, 0x00,
   0x00, 0x80, 0x00, 0x00, 0x00, 0x00, 0x00, 0x00, 0x00, 0x00, 0x00, 0xff,
   0x01, 0x00, 0x00, 0x18, 0x00, 0xc0, 0xff, 0x00, 0x00, 0xfe, 0x07, 0x00,
   0x00, 0xf8, 0x03, 0xf0, 0xff, 0x3f, 0x00, 0x80, 0x3f, 0x80, 0xff, 0xff,
   0x1f, 0x00, 0xfe, 0x07, 0x00, 0xf8, 0x0f, 0x00, 0x00, 0x00, 0x00, 0x00,
   0x00, 0x00, 0x80, 0xff, 0x03, 0x00, 0x00, 0x1e, 0x00, 0xe0, 0xff, 0x01,
   0x80, 0xff, 0x1f, 0x00, 0x00, 0xfc, 0x03, 0xf0, 0xff, 0x3f, 0x00, 0xe0,
   0x3f, 0x80, 0xff, 0xff, 0x1f, 0x00, 0xff, 0x0f, 0x00, 0xfc, 0x1f, 0x00,
   0x00, 0x00, 0x00, 0x00, 0x00, 0x00, 0xc0, 0xff, 0x07, 0x00, 0xc0, 0x1f,
   0x00, 0xf8, 0xff, 0x07, 0xc0, 0xff, 0x3f, 0x00, 0x00, 0xfc, 0x03, 0xf0,
   0xff, 0x3f, 0x00, 0xf0, 0x3f, 0x80, 0xff, 0xff, 0x1f, 0xc0, 0xff, 0x3f,
   0x00, 0xfe, 0x3f, 0x00, 0x00, 0x00, 0x00, 0x00, 0x00, 0x00, 0xe0, 0xff,
   0x0f, 0x00, 0xf0, 0x1f, 0x00, 0xf8, 0xff, 0x07, 0xe0, 0xff, 0x7f, 0x00,
   0x00, 0xfe, 0x03, 0xf0, 0xff, 0x3f, 0x00, 0xf8, 0x3f, 0x80, 0xff, 0xff,
   0x1f, 0xc0, 0xff, 0x3f, 0x00, 0xff, 0x7f, 0x00, 0x00, 0x00, 0x00, 0x00,
   0x00, 0x00, 0xf0, 0xff, 0x1f, 0x00, 0xfe, 0x1f, 0x00, 0xfc, 0xff, 0x0f,
   0xf0, 0xff, 0xff, 0x00, 0x00, 0xfe, 0x03, 0xf0, 0xff, 0x3f, 0x00, 0xfc,
   0x3f, 0x80, 0xff, 0xff, 0x1f, 0xe0, 0xff, 0x7f, 0x80, 0xff, 0xff, 0x00,
   0x00, 0x00, 0x00, 0x00, 0x00, 0x00, 0xf0, 0xff, 0x1f, 0x80, 0xff, 0x1f,
   0x00, 0xfe, 0xff, 0x0f, 0xf0, 0xff, 0xff, 0x00, 0x00, 0xff, 0x03, 0xf0,
   0xff, 0x3f, 0x00, 0xfe, 0x3f, 0x80, 0xff, 0xff, 0x1f, 0xe0, 0xff, 0x7f,
   0x80, 0xff, 0xff, 0x00, 0x00, 0x00, 0x00, 0x00, 0x00, 0x00, 0xf8, 0xc7,
   0x3f, 0x80, 0xff, 0x1f, 0x00, 0xfe, 0xe0, 0x1f, 0xf8, 0x07, 0xfe, 0x01,
   0x80, 0xff, 0x03, 0xf8, 0x03, 0x00, 0x00, 0xff, 0x01, 0x00, 0x00, 0xe0,
   0x0f, 0xf0, 0x0f, 0xff, 0xc0, 0x3f, 0xfe, 0x01, 0x00, 0x00, 0x00, 0x00,
   0x00, 0x00, 0xf8, 0x83, 0x3f, 0x80, 0xff, 0x1f, 0x00, 0xfe, 0xe0, 0x1f,
   0xf8, 0x03, 0xfe, 0x01, 0x80, 0xff, 0x03, 0xf8, 0x03, 0x00, 0x00, 0xff,
   0x00, 0x00, 0x00, 0xe0, 0x0f, 0xf0, 0x07, 0xfe, 0xc0, 0x1f, 0xfc, 0x01,
   0x00, 0x00, 0x00, 0x00, 0x00, 0x00, 0xf8, 0x83, 0x3f, 0x80, 0xff, 0x1f,
   0x00, 0x7f, 0xc0, 0x1f, 0xf8, 0x03, 0xfc, 0x01, 0xc0, 0xff, 0x03, 0xf8,
   0x03, 0x00, 0x80, 0x7f, 0x00, 0x00, 0x00, 0xe0, 0x07, 0xf0, 0x07, 0xfe,
   0xe0, 0x1f, 0xfc, 0x01, 0x00, 0x00, 0x00, 0x00, 0x00, 0x00, 0xfc, 0x01,
   0x7f, 0x80, 0xcf, 0x1f, 0x00, 0x7f, 0xc0, 0x1f, 0xf8, 0x03, 0xfc, 0x01,
   0xc0, 0xff, 0x03, 0xf8, 0x03, 0x00, 0x80, 0x3f, 0x00, 0x00, 0x00, 0xf0,
   0x07, 0xf0, 0x07, 0xfe, 0xe0, 0x0f, 0xf8, 0x01, 0x00, 0x00, 0x00, 0x00,
   0x00, 0x00, 0xfc, 0x01, 0x7f, 0x80, 0xc3, 0x1f, 0x00, 0x7f, 0xc0, 0x1f,
   0x00, 0x00, 0xfc, 0x01, 0xe0, 0xff, 0x03, 0xf8, 0x03, 0x00, 0xc0, 0x1f,
   0x00, 0x00, 0x00, 0xf0, 0x07, 0xf0, 0x07, 0xfe, 0xe0, 0x0f, 0xf8, 0x03,
   0xfc, 0x00, 0x00, 0x00, 0x00, 0x00, 0xfc, 0x01, 0x7f, 0x00, 0xc0, 0x1f,
   0x00, 0x7f, 0xc0, 0x1f, 0x00, 0x00, 0xfc, 0x01, 0xe0, 0xff, 0x03, 0xf8,
   0x03, 0x00, 0xc0, 0x1f, 0x00, 0x00, 0x00, 0xf0, 0x03, 0xf0, 0x07, 0xfe,
   0xe0, 0x0f, 0xf8, 0x03, 0xfe, 0x00, 0x00, 0x00, 0x00, 0x00, 0xfc, 0x01,
   0x7f, 0x00, 0xc0, 0x1f, 0x00, 0x00, 0xc0, 0x1f, 0x00, 0x00, 0xfc, 0x01,
   0xf0, 0xfb, 0x03, 0xf8, 0xf9, 0x01, 0xc0, 0x9f, 0x1f, 0x00, 0x00, 0xf8,
   0x03, 0xf0, 0x07, 0xfe, 0xe0, 0x0f, 0xf8, 0x03, 0xfe, 0x01, 0x00, 0x00,
   0x00, 0x00, 0xfc, 0x01, 0x7f, 0x00, 0xc0, 0x1f, 0x00, 0x00, 0xc0, 0x1f,
   0x00, 0x00, 0xfe, 0x00, 0xf0, 0xfb, 0x03, 0xf8, 0xff, 0x07, 0xc0, 0xef,
   0x7f, 0x00, 0x00, 0xf8, 0x03, 0xe0, 0x0f, 0x7f, 0xe0, 0x0f, 0xf8, 0x03,
   0xfe, 0x01, 0x00, 0x00, 0x00, 0x00, 0xfc, 0x01, 0x7f, 0x00, 0xc0, 0x1f,
   0x00, 0x00, 0xe0, 0x0f, 0x00, 0x00, 0xff, 0x00, 0xf8, 0xf9, 0x03, 0xf8,
   0xff, 0x0f, 0xe0, 0xff, 0xff, 0x00, 0x00, 0xfc, 0x01, 0xe0, 0x0f, 0x7f,
   0xe0, 0x0f, 0xf8, 0x03, 0xfe, 0x01, 0x00, 0x00, 0x00, 0x00, 0xfc, 0x01,
   0x7f, 0x00, 0xc0, 0x1f, 0x00, 0x00, 0xe0, 0x0f, 0x00, 0xfc, 0x7f, 0x00,
   0xf8, 0xf9, 0x03, 0xf8, 0xff, 0x1f, 0xe0, 0xff, 0xff, 0x01, 0x00, 0xfc,
   0x01, 0xe0, 0xff, 0x3f, 0xe0, 0x0f, 0xf8, 0x03, 0xfe, 0x01, 0x00, 0x00,
   0x00, 0x00, 0xfc, 0x01, 0x7f, 0x00, 0xc0, 0x1f, 0x00, 0x00, 0xf0, 0x07,
   0x00, 0xfc, 0x3f, 0x00, 0xfc, 0xf8, 0x03, 0xfc, 0xff, 0x1f, 0xe0, 0xff,
   0xff, 0x01, 0x00, 0xfc, 0x01, 0xc0, 0xff, 0x1f, 0xe0, 0x1f, 0xf8, 0x03,
   0xfc, 0x00, 0x00, 0x00, 0x00, 0x00, 0xfc, 0x01, 0x7f, 0x00, 0xc0, 0x1f,
   0x00, 0x00, 0xf0, 0x07, 0x00, 0xfc, 0x1f, 0x00, 0xfc, 0xf8, 0x03, 0xfc,
   0xff, 0x3f, 0xe0, 0xff, 0xff, 0x03, 0x00, 0xfe, 0x00, 0x80, 0xff, 0x0f,
   0xc0, 0x1f, 0xfc, 0x03, 0x00, 0x00, 0x00, 0x00, 0x00, 0x00, 0xfc, 0x01,
   0x7f, 0x00, 0xc0, 0x1f, 0x00, 0x00, 0xf8, 0x03, 0x00, 0xfc, 0x1f, 0x00,
   0x7e, 0xf8, 0x03, 0xfc, 0xc3, 0x3f, 0xe0, 0x3f, 0xfc, 0x03, 0x00, 0xfe,
   0x00, 0x80, 0xff, 0x0f, 0xc0, 0x3f, 0xfe, 0x03, 0x00, 0x00, 0x00, 0x00,
   0x00, 0x00, 0xfc, 0x01, 0x7f, 0x00, 0xc0, 0x1f, 0x00, 0x00, 0xfc, 0x03,
   0x00, 0xfc, 0x3f, 0x00, 0x7e, 0xf8, 0x03, 0xc0, 0x80, 0x3f, 0xe0, 0x1f,
   0xf8, 0x03, 0x00, 0xfe, 0x00, 0xc0, 0xff, 0x1f, 0xc0, 0xff, 0xff, 0x03,
   0x00, 0x00, 0x00, 0x00, 0x00, 0x00, 0xfc, 0x01, 0x7f, 0x00, 0xc0, 0x1f,
   0x00, 0x00, 0xfe, 0x01, 0x00, 0xfc, 0x7f, 0x00, 0x3f, 0xf8, 0x03, 0x00,
   0x80, 0x7f, 0xe0, 0x0f, 0xf8, 0x07, 0x00, 0x7f, 0x00, 0xe0, 0xff, 0x3f,
   0x80, 0xff, 0xff, 0x03, 0x00, 0x00, 0x00, 0x00, 0x00, 0x00, 0xfc, 0x01,
   0x7f, 0x00, 0xc0, 0x1f, 0x00, 0x00, 0xfe, 0x00, 0x00, 0x00, 0xff, 0x80,
   0x3f, 0xf8, 0x03, 0x00, 0x00, 0x7f, 0xe0, 0x0f, 0xf0, 0x07, 0x00, 0x7f,
   0x00, 0xf0, 0x8f, 0x7f, 0x80, 0xff, 0xff, 0x03, 0x00, 0x00, 0x00, 0x00,
   0x00, 0x00, 0xfc, 0x01, 0x7f, 0x00, 0xc0, 0x1f, 0x00, 0x00, 0xff, 0x00,
   0x00, 0x00, 0xfe, 0x80, 0x1f, 0xf8, 0x03, 0x00, 0x00, 0x7f, 0xe0, 0x0f,
   0xf0, 0x07, 0x80, 0x7f, 0x00, 0xf0, 0x07, 0x7f, 0x00, 0xff, 0xff, 0x03,
   0x00, 0x00, 0x00, 0x00, 0x00, 0x00, 0xfc, 0x01, 0x7f, 0x00, 0xc0, 0x1f,
   0x00, 0x80, 0x7f, 0x00, 0x00, 0x00, 0xfc, 0xc1, 0xff, 0xff, 0x1f, 0x00,
   0x00, 0x7f, 0xe0, 0x0f, 0xf0, 0x07, 0x80, 0x3f, 0x00, 0xf8, 0x03, 0xfe,
   0x00, 0xfe, 0xfb, 0x01, 0x00, 0x00, 0x00, 0x00, 0x00, 0x00, 0xfc, 0x01,
   0x7f, 0x00, 0xc0, 0x1f, 0x00, 0xc0, 0x3f, 0x00, 0x00, 0x00, 0xfc, 0xc1,
   0xff, 0xff, 0x1f, 0x00, 0x00, 0x7f, 0xe0, 0x0f, 0xf0, 0x07, 0x80, 0x3f,
   0x00, 0xf8, 0x03, 0xfe, 0x00, 0xf8, 0xf8, 0x01, 0x00, 0x00, 0x00, 0x00,
   0x00, 0x00, 0xfc, 0x01, 0x7f, 0x00, 0xc0, 0x1f, 0x00, 0xc0, 0x1f, 0x00,
   0x00, 0x00, 0xfc, 0xc1, 0xff, 0xff, 0x1f, 0x00, 0x00, 0x7f, 0xe0, 0x0f,
   0xf0, 0x07, 0xc0, 0x3f, 0x00, 0xf8, 0x03, 0xfe, 0x00, 0x00, 0xfc, 0x01,
   0x00, 0x00, 0x00, 0x00, 0x00, 0x00, 0xfc, 0x01, 0x7f, 0x00, 0xc0, 0x1f,
   0x00, 0xe0, 0x1f, 0x00, 0x00, 0x00, 0xfc, 0xc1, 0xff, 0xff, 0x1f, 0x00,
   0x00, 0x7f, 0xe0, 0x0f, 0xf0, 0x07, 0xc0, 0x1f, 0x00, 0xf8, 0x03, 0xfe,
   0x00, 0x00, 0xfc, 0x01, 0x00, 0x00, 0x00, 0x00, 0x00, 0x00, 0xfc, 0x01,
   0x7f, 0x00, 0xc0, 0x1f, 0x00, 0xf0, 0x0f, 0x00, 0xf8, 0x03, 0xfc, 0xc1,
   0xff, 0xff, 0x1f, 0xfc, 0x01, 0x7f, 0xe0, 0x0f, 0xf0, 0x07, 0xc0, 0x1f,
   0x00, 0xf8, 0x03, 0xfe, 0x00, 0x00, 0xfc, 0x00, 0x00, 0x00, 0x00, 0x00,
   0x00, 0x00, 0xf8, 0x83, 0x3f, 0x00, 0xc0, 0x1f, 0x00, 0xf0, 0x07, 0x00,
   0xf8, 0x03, 0xfc, 0xc1, 0xff, 0xff, 0x1f, 0xfc, 0x81, 0x7f, 0xc0, 0x1f,
   0xf8, 0x07, 0xe0, 0x1f, 0x00, 0xf8, 0x03, 0xfe, 0x00, 0x00, 0xfe, 0x00,
   0x00, 0x00, 0x00, 0x00, 0x00, 0x00, 0xf8, 0x83, 0x3f, 0x00, 0xc0, 0x1f,
   0x00, 0xf8, 0x07, 0x00, 0xf8, 0x07, 0xfe, 0x01, 0x00, 0xf8, 0x03, 0xfc,
   0x81, 0x3f, 0xc0, 0x1f, 0xf8, 0x03, 0xe0, 0x0f, 0x00, 0xf8, 0x07, 0xff,
   0x00, 0x00, 0x7f, 0x00, 0x00, 0x00, 0x00, 0x00, 0x00, 0x00, 0xf8, 0xc7,
   0x3f, 0x00, 0xc0, 0x1f, 0x00, 0xfc, 0x03, 0x00, 0xf8, 0x07, 0xfe, 0x00,
   0x00, 0xf8, 0x03, 0xfc, 0x83, 0x3f, 0xc0, 0x3f, 0xfc, 0x03, 0xf0, 0x0f,
   0x00, 0xf8, 0x07, 0xff, 0x00, 0x80, 0x7f, 0x00, 0xfc, 0x00, 0x00, 0x00,
   0x00, 0x00, 0xf0, 0xff, 0x1f, 0x00, 0xc0, 0x1f, 0x00, 0xfe, 0xff, 0x7f,
   0xf0, 0xff, 0xff, 0x00, 0x00, 0xf8, 0x03, 0xfc, 0xff, 0x3f, 0x80, 0xff,
   0xff, 0x03, 0xf0, 0x07, 0x00, 0xf0, 0xff, 0x7f, 0x00, 0xfc, 0x3f, 0x00,
   0xfe, 0x00, 0x00, 0x00, 0x00, 0x00, 0xf0, 0xff, 0x1f, 0x00, 0xc0, 0x1f,
   0x00, 0xfe, 0xff, 0x7f, 0xf0, 0xff, 0xff, 0x00, 0x00, 0xf8, 0x03, 0xf8,
   0xff, 0x1f, 0x80, 0xff, 0xff, 0x01, 0xf0, 0x07, 0x00, 0xf0, 0xff, 0x7f,
   0x00, 0xfc, 0x3f, 0x00, 0xfe, 0x01, 0x00, 0x00, 0x00, 0x00, 0xe0, 0xff,
   0x0f, 0x00, 0xc0, 0x1f, 0x00, 0xfe, 0xff, 0x7f, 0xe0, 0xff, 0x7f, 0x00,
   0x00, 0xf8, 0x03, 0xf0, 0xff, 0x0f, 0x00, 0xff, 0xff, 0x00, 0xf8, 0x07,
   0x00, 0xe0, 0xff, 0x3f, 0x00, 0xfc, 0x1f, 0x00, 0xfe, 0x01, 0x00, 0x00,
   0x00, 0x00, 0xc0, 0xff, 0x07, 0x00, 0xc0, 0x1f, 0x00, 0xfe, 0xff, 0x7f,
   0xc0, 0xff, 0x3f, 0x00, 0x00, 0xf8, 0x03, 0xe0, 0xff, 0x0f, 0x00, 0xfe,
   0x7f, 0x00, 0xf8, 0x03, 0x00, 0xc0, 0xff, 0x1f, 0x00, 0xfc, 0x0f, 0x00,
   0xfe, 0x01, 0x00, 0x00, 0x00, 0x00, 0x80, 0xff, 0x03, 0x00, 0xc0, 0x1f,
   0x00, 0xfe, 0xff, 0x7f, 0x80, 0xff, 0x1f, 0x00, 0x00, 0xf8, 0x03, 0xc0,
   0xff, 0x07, 0x00, 0xfc, 0x3f, 0x00, 0xf8, 0x03, 0x00, 0x80, 0xff, 0x0f,
   0x00, 0xfc, 0x03, 0x00, 0xfe, 0x01, 0x00, 0x00, 0x00, 0x00, 0x00, 0xff,
   0x01, 0x00, 0xc0, 0x1f, 0x00, 0xfe, 0xff, 0x7f, 0x00, 0xfe, 0x07, 0x00,
   0x00, 0xf8, 0x03, 0x00, 0xff, 0x01, 0x00, 0xf0, 0x1f, 0x00, 0xfc, 0x03,
   0x00, 0x00, 0xfe, 0x03, 0x00, 0xfc, 0x00, 0x00, 0xfc, 0x00, 0x00, 0x00,
   0x00, 0x00, 0x00, 0x00, 0x00, 0x00, 0x00, 0x00, 0x00, 0x00, 0x00, 0x00,
   0x00, 0x00, 0x00, 0x00, 0x00, 0x00, 0x00, 0x00, 0x00, 0x00, 0x00, 0x00,
   0x00, 0x00, 0x00, 0x00, 0x00, 0x00, 0x00, 0x00, 0x00, 0x00, 0x00, 0x00,
   0x00, 0x00, 0x00, 0x00, 0x00, 0x00, 0x00, 0x00, 0x00, 0x00, 0x00, 0x00,
   0x00, 0x00, 0x00, 0x00, 0x00, 0x00, 0x00, 0x00, 0x00, 0x00, 0x00, 0x00,
   0x00, 0x00, 0x00, 0x00, 0x00, 0x00, 0x00, 0x00, 0x00, 0x00, 0x00, 0x00,
   0x00, 0x00, 0x00, 0x00, 0x00, 0x00, 0x00, 0x00, 0x00, 0x00, 0x00, 0x00,
   0x00, 0x00, 0x00, 0x00, 0x00, 0x00, 0x00, 0x00, 0x00, 0x00, 0x00, 0x00,
   0x00, 0x00, 0x00, 0x00, 0x00, 0x00, 0x00, 0x00, 0x00, 0x00, 0x00, 0x00,
   0x00, 0x00, 0x00, 0x00, 0x00, 0x00, 0x00, 0x00, 0x00, 0x00, 0x00, 0x00,
   0x00, 0x00, 0x00, 0x00, 0x00, 0x00, 0x00, 0x00, 0x00, 0x00, 0x00, 0x00,
   0x00, 0x00, 0x00, 0x00, 0x00, 0x00, 0x00, 0x00, 0x00, 0x00, 0x00, 0x00,
   0x00, 0x00, 0x00, 0x00, 0x00, 0x00, 0x00, 0x00, 0x00, 0x00, 0x00, 0x00,
   0x00, 0x00, 0x00, 0x00, 0x00, 0x00, 0x00, 0x00, 0x00, 0x00, 0x00, 0x00,
   0x00, 0x00, 0x00, 0x00, 0x00, 0x00, 0x00, 0x00, 0x00, 0x00, 0x00, 0x00,
   0x00, 0x00, 0x00, 0x00, 0x00, 0x00, 0x00, 0x00, 0x00, 0x00, 0x00, 0x00,
   0x00, 0x00, 0x00, 0x00, 0x00, 0x00, 0x00, 0x00, 0x00, 0x00, 0x00, 0x00,
   0x00, 0x00, 0x00, 0x00, 0x00, 0x00, 0x00, 0x00, 0x00, 0x00, 0x00, 0x00,
   0x00, 0x00, 0x00, 0x00, 0x00, 0x00, 0x00, 0x00, 0x00, 0x00, 0x00, 0x00,
   0x00, 0x00, 0x00, 0x00, 0x00, 0x00, 0x00, 0x00, 0x00, 0x00, 0x00, 0x00,
   0x00, 0x00, 0x00, 0x00, 0x00, 0x00, 0x00, 0x00, 0x00, 0x00, 0x00, 0x00,
   0x00, 0x00, 0x00, 0x00, 0x00, 0x00, 0x00, 0x00, 0x00, 0x00, 0x00, 0x00,
   0x00, 0x00, 0x00, 0x00, 0x00, 0x00, 0x00, 0x00, 0x00, 0x00, 0x00, 0x00,
   0x00, 0x00, 0x00, 0x00, 0x00, 0x00, 0x00, 0x00, 0x00, 0x00, 0x00, 0x00,
   0x00, 0x00, 0x00, 0x00, 0x00, 0x00, 0x00, 0x00, 0x00, 0x00, 0x00, 0x00,
   0x00, 0x00, 0x00, 0x00, 0x00, 0x00, 0x00, 0x00, 0x00, 0x00, 0x00, 0x00,
   0x00, 0x00, 0x00, 0x00, 0x00, 0x00, 0x00, 0x00, 0x00, 0x00, 0x00, 0x00,
   0x00, 0x00, 0x00, 0x00, 0x00, 0x00, 0x00, 0x00, 0x00, 0x00, 0x00, 0x00,
   0x00, 0x00, 0x00, 0x00, 0x00, 0x00, 0x00, 0x00, 0x00, 0x00, 0x00, 0x00,
   0x00, 0x00, 0x00, 0x00, 0x00, 0x00, 0x00, 0x00, 0x00, 0x00, 0x00, 0x00,
   0x00, 0x00, 0x00, 0x00, 0x00, 0x00, 0x00, 0x00, 0x00, 0x00, 0x00, 0x00,
   0x00, 0x00, 0x00, 0x00, 0x00, 0x00, 0x00, 0x00, 0x00, 0x00, 0x00, 0x00,
   0x00, 0x00, 0x00, 0x00, 0x00, 0x00, 0x00, 0x00, 0x00, 0x00, 0x00, 0x00,
   0x00, 0x00, 0x00, 0x00, 0x00, 0x00, 0x00, 0x00, 0x00, 0x00, 0x00, 0x00,
   0x00, 0x00, 0x00, 0x00, 0x00, 0x00, 0x00, 0x00, 0x00, 0x00, 0x00, 0x00,
   0x00, 0x00, 0x00, 0x00, 0x00, 0x00, 0x00, 0x00, 0x00, 0x00, 0x00, 0x00,
   0x00, 0x00, 0x00, 0x00, 0x00, 0x00, 0x00, 0x00, 0x00, 0x00, 0x00, 0x00,
   0x00, 0x00, 0x00, 0x00, 0x00, 0x00, 0x00, 0x00, 0x00, 0x00, 0x00, 0x00,
   0x00, 0x00, 0x00, 0x00, 0x00, 0x00, 0x00, 0x00, 0x00, 0x00, 0x00, 0x00,
   0x00, 0x00, 0x00, 0x00, 0x00, 0x00, 0x00, 0x00, 0x00, 0x00, 0x00, 0x00,
   0x00, 0x00, 0x00, 0x00, 0x00, 0x00, 0x00, 0x00, 0x00, 0x00, 0x00, 0x00,
   0x00, 0x00, 0x00, 0x00, 0x00, 0x00, 0x00, 0x00, 0x00, 0x00, 0x00, 0x00,
   0x00, 0x00, 0x00, 0x00, 0x00, 0x00, 0x00, 0x00, 0x00, 0x00, 0x00, 0x00,
   0x00, 0x00, 0x00, 0x00, 0x00, 0x00, 0x00, 0x00, 0x00, 0x00, 0x00, 0x00,
   0x00, 0x00, 0x00, 0x00, 0x00, 0x00, 0x00, 0x00, 0x00, 0x00, 0x00, 0x00,
   0x00, 0x00, 0x00, 0x00, 0x00, 0x00, 0x00, 0x00, 0x00, 0x00, 0x00, 0x00,
   0x00, 0x00, 0x00, 0x00, 0x00, 0x00, 0x00, 0x00, 0x00, 0x00, 0x00, 0x00,
   0x00, 0x00, 0x00, 0x00, 0x00, 0x00, 0x00, 0x00, 0x00, 0x00, 0x00, 0x00,
   0x00, 0x00, 0x00, 0x00, 0x00, 0x00, 0x00, 0x00, 0x00, 0x00, 0x00, 0x00,
   0x00, 0x00, 0x00, 0x00, 0x00, 0x00, 0x00, 0x00, 0x00, 0x00, 0x00, 0x00,
   0x00, 0x00, 0x00, 0x00, 0x00, 0x00, 0x00, 0x00, 0x00, 0x00, 0x00, 0x00,
   0x00, 0x00, 0x00, 0x00, 0x00, 0x00, 0x00, 0x00, 0x00, 0x00, 0x00, 0x00,
   0x00, 0x00, 0x00, 0x00, 0x00, 0x00, 0x00, 0x00, 0x00, 0x00, 0x00, 0x00,
   0x00, 0x00, 0x00, 0x00, 0x00, 0x00, 0x00, 0x00, 0x00, 0x00, 0x00, 0x00,
   0x00, 0x00, 0x00, 0x00, 0x00, 0x00, 0x00, 0x00, 0x00, 0x00, 0x00, 0x00,
   0x00, 0x00, 0x00, 0x00, 0x00, 0x00, 0x00, 0x00, 0x00, 0x00, 0x00, 0x00,
   0x00, 0x00, 0x00, 0x00, 0x00, 0x00, 0x00, 0x00 };
