#define rotflip_colon_width 48
#define rotflip_colon_height 24
static unsigned char rotflip_colon_bits[] = {
   0x00, 0x00, 0x00, 0x00, 0x00, 0x00, 0x00, 0x00, 0x00, 0x00, 0x00, 0x00,
   0x00, 0x00, 0x00, 0x00, 0x00, 0x00, 0x00, 0x00, 0x00, 0x00, 0x00, 0x00,
   0x00, 0x00, 0x00, 0x00, 0x00, 0x00, 0x00, 0x00, 0x00, 0x00, 0x00, 0x00,
   0x00, 0x00, 0x00, 0x00, 0x00, 0x00, 0x00, 0x00, 0x00, 0x00, 0x00, 0x00,
   0x00, 0x00, 0x1f, 0x00, 0xf0, 0x01, 0x00, 0x80, 0x3f, 0x00, 0xf8, 0x03,
   0x00, 0x80, 0x3f, 0x00, 0xf8, 0x03, 0x00, 0x80, 0x3f, 0x00, 0xf8, 0x03,
   0x00, 0x80, 0x3f, 0x00, 0xf8, 0x03, 0x00, 0x80, 0x3f, 0x00, 0xf8, 0x03,
   0x00, 0x80, 0x3f, 0x00, 0xf8, 0x03, 0x00, 0x00, 0x1e, 0x00, 0xe0, 0x01,
   0x00, 0x00, 0x00, 0x00, 0x00, 0x00, 0x00, 0x00, 0x00, 0x00, 0x00, 0x00,
   0x00, 0x00, 0x00, 0x00, 0x00, 0x00, 0x00, 0x00, 0x00, 0x00, 0x00, 0x00,
   0x00, 0x00, 0x00, 0x00, 0x00, 0x00, 0x00, 0x00, 0x00, 0x00, 0x00, 0x00,
   0x00, 0x00, 0x00, 0x00, 0x00, 0x00, 0x00, 0x00, 0x00, 0x00, 0x00, 0x00 };
